<?xml version="1.0" encoding="UTF-8"?>
<svg viewBox="0 0 544 879" xmlns="http://www.w3.org/2000/svg">
 <g fill-rule="evenodd">
  <path d="m267 313l1 1v3l1 1 1 1v2h1v1h1v1h1v1h1v1h2v-5l-1-2h1l1 1h1l2 1c1.3333 0.66666 2 1.3333 2 2v1h7l1 1 2 1h-4c-2.6667 0-4.3333 0.33334-5 1l-1 1h-3v1h1v2h1v1h1v1h1v1h1v1h1v1h1l2 1c2 0.66666 4.3333 1 7 1h4l-1 1v1h-1v1h-1v1h-3l-4-1c-2.6667-0.66666-6.6667-3.6667-12-9-6-5.3333-10-11.333-12-18l-4-11v-1h1c0.66666-0.66666 1.6667 0.66666 3 4 0.66666 4 1.3333 6.6667 2 8z" fill="#c79e1f" stroke="#c79e1f"/>
  <path d="m258 192l7-5v1c0 0.66666-1 1.6667-3 3-2.6667 1.3333-4 2.3333-4 3 0 0.66666-1.3333 2.3333-4 5-2.6667 2-4.6667 4.3333-6 7s-2.3333 7-3 13c-0.66666 6.6667-1.3333 10.333-2 11-0.66666 0.66666-1 2.3333-1 5v4l-1 2v3h-1v-6h-1v-1h-1v-2c0-0.66666 0.66666-2 2-4 0-2.6667 0.33334-6.3333 1-11s1-7.6667 1-9c1.3333-2 3.3333-4.6667 6-8 2.6667-4 6-7.6667 10-11z" fill="#cba423" stroke="#cba423"/>
  <path d="m340 569h3v1c0.66666 0.66669 1 1.3333 1 2v1h1v1h1v1l8 10c4.6667 6.6667 7 10 7 10h1v1l2 2 2 2 4 5c2.6667 3.3333 4 5.3333 4 6v1l1 1v2h-1c-1.3333 0-6 2-14 6l-13 6-1 1-1 1h-2l-1 1-1 1h-1v1c0 0.66669-2.6667 2-8 4l-7 3h-3c-1.3333 0-8 2.6667-20 8-12 4-18.333 7.3333-19 10-0.66666 2.6667-2 6.6667-4 12-1.3333 5.3333-2.3333 8.6667-3 10-1.3333 0.66669-2 1.3333-2 2v1h-1v1h-1v4s-0.66666 1-2 3c-0.66666 2-2.6667 3-6 3-2.6667 0-4.6667 0.66669-6 2s-3.3333 2-6 2h-6c-2.6667 0-4.6667 0.66669-6 2-2 1.3333-4.6667 2-8 2-2.6667 0-5-0.33331-7-1s-4.3333-0.33331-7 1l-4 2h-2v-1h-1v1h-2v-2l-1-1v-30c-0.66666 0.66669-1.3333-0.66669-2-4v-4l-1 1h-1v1h-2v-2c0-1.3333-0.66666-3.3333-2-6s-2-5.6667-2-9c0-4 4.6667-8.6667 14-14 10-5.3333 17.333-8.6667 22-10 4.6667 0 7.6667-0.66669 9-2 1.3333 0 2.3333-0.66669 3-2 0-0.66669 0.66666-1 2-1 1.3333-0.66669 2.6667-1.3333 4-2 1.3333-1.3333 13.333-8.3333 36-21l34-19v1h4l1-1 1-1h1l5-3c3.3333-2 5.3333-3 6-3z" fill="#732712" stroke="#732712"/>
  <g stroke="#000">
   <path d="m434 753h109v1h1v3l-4 6c-2 4-3.3333 6.3333-4 7 0 0.66669-0.33331 1-1 1v1c-0.66669 0-1 0.33331-1 1l-3 3c-2 2-6.3333 4.3333-13 7-6.6667 4-16.333 7-29 9s-21.667 4.3333-27 7l-8 2v1h-1v-1h-1v-1h1c0-0.66669-0.33331-1.6667-1-3-1.3333-1.3333-2-2.3333-2-3-0.66669-0.66669-1-2-1-4l1-3-1-1-1-1v1c0 0.66669-0.33331 1-1 1h-2l-2 2h-2v-2c0.66669-1.3333 1-2 1-2v-3c0.66669-2 0.33331-3.3333-1-4-1.3333-1.3333-2-2.3333-2-3 0-0.66669 1-1.3333 3-2 1.3333-0.66669 2-1.3333 2-2v-2h-1v1h-1c0 0.66669-1.3333-1-4-5-2.6667-3.3333-3.6667-5.3333-3-6v-1h-1v-1h-1c-0.66669 0-1.3333-0.66669-2-2l-1-1h2l2-1z"/>
   <path d="m289 753h10l-3 3c-2.6667 2-4.6667 2.6667-6 2-1.3333 0-2.3333 1.3333-3 4-0.66666 2.6667-0.66666 4 0 4s1 0.33331 1 1c-0.66666 1.3333-1.3333 2-2 2-1.3333 0-2 3-2 9-0.66666 6-0.33334 9.3333 1 10 0.66666 0.66669 1 2.3333 1 5v4c-0.66666 0-1.3333 0.33331-2 1h-3c0 0.66669 0.33334 1 1 1l-1 1c-0.66666 0.66669-1.3333 1.3333-2 2-0.66666 0.66669-2.3333 1.3333-5 2-2 0.66669-3.3333 1.3333-4 2-1.3333 0.66669-2.3333 1-3 1h-1v1c0 0.66669-0.33334 1.3333-1 2h-1v1c0 1.3333 0.66666 2 2 2s2 0.66669 2 2v2h-2c-0.66666 0-2 1-4 3s-3.3333 3-4 3c-1.3333 0-2-0.33331-2-1-0.66666-0.66669-2-0.66669-4 0-1.3333 0-2-0.33331-2-1-0.66666 0-1.3333 0.33331-2 1 0 0.66669-1 1-3 1-2 0.66669-3.3333 1.3333-4 2 0 1.3333-0.66666 2.6667-2 4-0.66666 0.66669-2 2-4 4-2 2.6667-3.3333 4-4 4h-1v-3h-1l-1 1h-6c-2.6667-0.66669-4.3333-0.66669-5 0-0.66666 1.3333-1 1.3333-1 0 0-0.66669-0.66666-1-2-1-1.3333-0.66669-2-1.3333-2-2 0-0.66669-1-1.3333-3-2-2.6667-0.66669-4-1.3333-4-2-0.66666-0.66669-1.3333-1.6667-2-3-1.3333-0.66669-2-1.3333-2-2 0-0.66669-0.66666-1-2-1-1.3333 0.66669-2 0.33331-2-1-0.66666-0.66669-1-1.3333-1-2-0.66666 0-0.66666-0.66669 0-2v-4h-1v-5h-1c-0.66666 0.66669-1.3333 1-2 1 0 0-0.66666-1-2-3s-1.6667-3.3333-1-4c0-0.66669 0.33334-1.6667 1-3 1.3333-2 1.6667-4 1-6-0.66666-2.6667-1.3333-4-2-4-0.66666-0.66669-1-1.3333-1-2 0-0.66669-1.3333-1.6667-4-3-3.3333-2-4.6667-3-4-3 1.3333 0 2-0.66669 2-2s-0.33334-3-1-5c-0.66666-2.6667-2.3333-4.3333-5-5-2-0.66669-3.3333-1.6667-4-3 0-1.3333-0.66666-2.3333-2-3h-2v-6l-1-1v-1h3c2 0 3-0.33331 3-1v-1h116z"/>
  </g>
  <path d="m403 56l-6-9 3 1c1.3333 0.66667 2 1 2 1h1s0.33331 0.33333 1 1v1h1l1 2c0 0.66667 0.33331 1 1 1l4 7c2 4 2.6667 7.3333 2 10-0.66669 2.6667-2.3333 4.6667-5 6l-4 4h-1l-1 1-1 1h-2l-1 1-1 1h-2v-1h1v-2h1v-1h1l1-1 1-1h1c0.66669 0 2-1 4-3s3.3333-4.3333 4-7c0.66669-2.6667-1.3333-7-6-13z" fill="#b88f24" stroke="#b88f24"/>
  <path d="m329 369l8-14 1 5c1.3333 3.3333 2.3333 5 3 5 0.66666 0 1 0.33334 1 1-0.66666 0.66666-0.66666 1.3333 0 2 1.3333 0.66666 1.3333 1 0 1-0.66666 1.3333-0.66666 2 0 2 1.3333 0 2 0.66666 2 2 0 0.66666-0.33334 1-1 1l-1 1h3c2 0 3-0.33334 3-1s0.66669-1 2-1 3.3333 0.33334 6 1c2 0.66666 3 1.6667 3 3v3h1v-1h2l2-2h1l-6 14c-3.3333 10-5.6667 18-7 24-1.3333 6.6667-2 14.667-2 24 0 9.3333 0.66669 17 2 23s2.3333 9.6667 3 11l1 1v2l1 1v1c0 0.66669 0.33331 1 1 1v2h1v1h1l2 5c2.6667 2.6667 3.3333 6 2 10 0 4.6667-0.66669 8-2 10 0 1.3333-0.33331 2.6667-1 4v2h-1l-2 6c-2.6667 4.6667-3.6667 8.3333-3 11 0 2-1 3.6667-3 5-2 0-3 0.33331-3 1l-2 1c-0.66669 0.66669-1.3333 3-2 7-0.66669 4-1.6667 7-3 9-1.3333 2.6667-2.3333 5.6667-3 9-0.66666 3.3333-2.3333 5.6667-5 7s-4.3333 2.3333-5 3l-1 1h-1l-1 1-1 1h-2l-1 1-34 19c-22.667 12.667-34.667 19.667-36 21-1.3333 0.66669-2.6667 1.3333-4 2-1.3333 0-2 0.33331-2 1-0.66666 1.3333-1.6667 2-3 2-1.3333 1.3333-4.3333 2-9 2-4.6667 1.3333-12 4.6667-22 10-9.3333 5.3333-14 10-14 14 0 3.3333 0.66666 6.3333 2 9s2 4.6667 2 6v3h-3c-2 0-6 1.3333-12 4-6 1.3333-13.667 4-23 8l-14 6h-2v1h-1v1h-3l1-1 1-1v-42c0-22 0.33334-36.667 1-44 0.66666-6.6667 2.6667-13.333 6-20l4-11h1v1h1l19 1c12 0.66669 27.333 1 46 1h41l-3-1-4-1h-9c-6 0-11-0.33331-15-1h-6v-1h2l2-1c2-0.66669 3.3333-1.3333 4-2 1.3333-1.3333 1.6667-2.3333 1-3l-1-3c-1.3333-1.3333-1.3333-2.3333 0-3h1v-1h1v-2h1v-1h1l-10-1c-6.6667-0.66669-10.667-1-12-1h-5l-2-1h-2v-1h1l2-1c0.66666-0.66669 1.3333-1 2-1 0.66666 0 1-0.66669 1-2-0.66666-0.66669 0-1.6667 2-3 1.3333-2 1.6667-4.3333 1-7-0.66666-2.6667-0.66666-4 0-4 0-0.66669 0.33334-1.3333 1-2 0.66666-0.66669 0.33334-2-1-4-0.66666-1.3333-0.66666-2 0-2s1-0.33331 1-1l-1-1v-1s0.33334-0.33331 1-1c0-1.3333 0.66666-1.3333 2 0 0.66666 0.66669 1 0.33331 1-1v-3c-0.66666 0-1-1-1-3 0-1.3333 0.33334-2 1-2 0.66666 0.66669 1.3333 0.33331 2-1 0-1.3333 0.66666-2 2-2 0.66666 0 1.3333-0.66669 2-2 0-1.3333 0.33334-1.6667 1-1 0.66666 0.66669 1 0.66669 1 0 0.66666-0.66669 2-1 4-1h2v-8c0-4.6667 0.66666-7.3333 2-8 1.3333-1.3333 1.6667-2 1-2-0.66666 0-0.33334-0.33331 1-1s1.6667-2.3333 1-5l-1-3v-3h1v-1h1v1c0 0.66669 0.33334 1 1 1 0.66666-0.66669 1-1 1-1l1 2 1 1v-2c0-1.3333-0.66666-2-2-2l-1-1h-1v-2c0-0.66669 0.33334-1 1-1 0.66666 0.66669 1.3333 1 2 1 0.66666 0.66669 1.3333 0 2-2 0.66666-2 1.6667-3 3-3 1.3333-0.66669 2.3333-1.6667 3-3 0.66666-1.3333 1-2.3333 1-3 0-0.66669 0.33334-1.3333 1-2 0.66666-0.66669 0.66666-1.3333 0-2-0.66666-0.66669-0.33334-1 1-1 1.3333-0.66669 2-1.3333 2-2 0-0.66669 0.66666-0.66669 2 0h2v-1c0-0.66669-0.33334-1.6667-1-3-0.66666-0.66669-1.3333-1.3333-2-2-0.66666 0-0.66666-1 0-3s1.6667-3 3-3c0.66666 0 1-0.66669 1-2l-1-1v-1h-1c-0.66666 0-1-0.33331-1-1l-1-1v-1h23c0.66666-0.66669 2.6667-1.3333 6-2 3.3333-0.66669 7.3333-3 12-7 4-4 8-9.3333 12-16l5-11h1v-1l1-2 1-1v-1l1-2c0.66666-0.66666 3.3333-6 8-16zm-69 80c0.66666-0.66669 1-0.66669 1 0s-0.33334 1-1 1c-1.3333-0.66669-1.3333-1 0-1zm-40 71h1c0 0.66669-0.33334 1-1 1v-1z" fill="#702516" stroke="#702516"/>
  <path d="m296 756l3-3h23c15.333 0 25 0.33331 29 1h6v1h1l-1 4c0 3.3333-0.33331 5-1 5s-1.3333 1.6667-2 5c0 3.3333-0.66669 5.6667-2 7s-2 2.6667-2 4v4c0 2-0.33331 3.3333-1 4-0.66669 1.3333-1 2-1 2v-1s-1-0.33331-3-1-3.3333-0.33331-4 1c-0.66666 0.66669-2.3333 1.6667-5 3-2.6667 2-5.3333 2.3333-8 1-2-1.3333-4-2-6-2-2.6667 0-4 0.33331-4 1s-1 1.3333-3 2c-2 0.66669-3 1.3333-3 2 0 0.66669-0.66666 1.6667-2 3-2 1.3333-3.3333 2.3333-4 3-1.3333 1.3333-2.6667 2-4 2-1.3333 0.66669-2.3333 0-3-2-0.66666-1.3333-1-1.6667-1-1 0 0.66669-0.66666 1-2 1 0 0-0.33334 0.66669-1 2s-1.6667 1.6667-3 1c-1.3333 0-2-0.33331-2-1s-0.33334-0.66669-1 0l-1 1h-2v-1h-1v-1h-3v-5h2c0.66666-0.66669 1.3333-1 2-1v-4c0-2.6667-0.33334-4.3333-1-5-1.3333-0.66669-1.6667-3.6667-1-9 0-5.3333 0.66666-10 2-14 1.3333-4.6667 2.6667-7 4-7 1.3333 0.66669 3.3333 0 6-2zm-9 12h1v1c-0.66666 0-1-0.33331-1-1z" stroke="#000"/>
  <path d="m386 0h1l5 1c3.3333 0 5.6667 1.6667 7 5 2 3.3333 3 5.3333 3 6 0.66669 0.66667 1.3333 1 2 1h2v1h1v1h1v1l2 6c1.3333 3.3333 2.6667 5.6667 4 7 0.66669 0 1.3333 0.33333 2 1l1 1 1 1v3l1 4c0.66669 3.3333 1.3333 5.3333 2 6 1.3333 0 2 0.33333 2 1h-3c-2 0-3 0.33333-3 1s-0.33331 1-1 1-1-0.66667-1-2c-0.66669-1.3333-1.3333-1.6667-2-1-1.3333 0-2.3333 0.66667-3 2l-2 2v2c0 1.3333-0.33331 2-1 2v1c-0.66669 0-1-0.33333-1-1l-1-2c-0.66669-0.66667-1-1-1-1v-1h-1c-0.66669-0.66667-2.6667-3.6667-6-9l-5-8h-1v-1h-1v-2h-4v1l-1 1v1h-2v1l-1 1v8c0 4 0.33331 6.3333 1 7 0.66669 0.66667 1 1 1 1v1l1 2 1 1v1l1 1 1 1 1 1h1v-2h-1v-1h-1v-3l-1-1c-0.66669-0.66667-1-2-1-4l-2-4v-4l1-1 1-1v-2h2v1h1v1h1v1l1 1 1 1v1l2 3c1.3333 2 2.3333 3 3 3 0 0 0.33331 0.33333 1 1v1h1l5 8c4 5.3333 5.6667 9.3333 5 12-0.66669 2.6667-2 5-4 7s-3.3333 3-4 3h-1l-1 1-1 1h-1v1h-1v2h-1v1h-1l-7 4c-4.6667 2.6667-9 4-13 4-3.3333 0-5.3333-0.33333-6-1 0-0.66667-0.33331-1-1-1s-2.3333-2-5-6-5.6667-6-9-6-18 9.6667-44 29c-26 18.667-39.333 29-40 31-0.66666 2.6667-1 5.3333-1 8-1.3333 3.3333-2.3333 5.3333-3 6l-2 1c0-0.66666-9-2.6667-27-6l-28-5-2-1-2-1h-5v1h1v1h3l1 1 1 1 17 4c12 2.6667 19.333 4.3333 22 5 3.3333 0.66666 7 1 11 1h6v1l-1 5c0 3.3333 1 7.6667 3 13s3.3333 8.3333 4 9v2h-1v1l-1 1-7 5c-4 3.3333-7.3333 7-10 11-2.6667 3.3333-4.6667 6-6 8 0 1.3333-0.33334 4.3333-1 9s-1 8.3333-1 11c-1.3333 2-2 3.3333-2 4v1l-1-1c-0.66666-0.66666-2-0.66666-4 0s-3 0.66666-3 0c-0.66666-1.3333-1.3333-1.3333-2 0 0 0.66666-0.66666 1.3333-2 2h-6c-1.3333 0-2.3333 1.3333-3 4-0.66666 2-0.66666 3.3333 0 4l1 1v1h-4c-0.66666 0-1-0.33334-1-1s-0.33334-1-1-1h-1l1 4c0 2.6667 0.33334 4 1 4h1v2h-7c0.66666 0 0.33334 0.66666-1 2-2 1.3333-3.3333 2-4 2 0-0.66666-0.33334-1-1-1-0.66666-0.66666-1.6667-0.66666-3 0l-2 1-1-1h-1v-1c0-1.3333-0.33334-2.6667-1-4s-0.33334-2 1-2c0.66666-0.66666 1-1.3333 1-2-0.66666-0.66666-1.3333-1-2-1-0.66666 0.66666-1 0.33334-1-1l-1-2h-1c-1.3333 0-2-0.33334-2-1-0.66666-0.66666-1.3333 0-2 2 0 1.3333-0.66666 2-2 2-0.66666 0-1-1-1-3 0-1.3333-1-2-3-2s-3 0.33334-3 1-0.33334 1-1 1-1-0.33334-1-1-0.33334-1-1-1h-2v-3h-1v-1h-1v-3c0-2-0.66666-10.333-2-25-1.3333-14-2.3333-30-3-48-0.66666-18.667 0.33334-30 3-34 1.3333-4.6667 4-8.6667 8-12s19.333-12 46-26l40-22h1v-1h1l1-1h1l32-16c21.333-10 32.667-16.667 34-20 1.3333-2.6667 3-4.6667 5-6s3.3333-2.3333 4-3l1-1h2l13-7 13-7 4-2c2.6667-1.3333 4.3333-2 5-2h1l2-2c2 0 3.3333-0.33334 4-1zm-29 43l2-2 5 1c3.3333 0.66667 6.3333 2.3333 9 5 2 2.6667 3.3333 4.3333 4 5v1l3 4c2 2.6667 3.3333 4 4 4h6v3h-1v1h-7v-1h-1v-1h-1l-2-5-3-4h-1v-1c0-0.66667-1.3333-2-4-4-2-1.3333-5-2.3333-9-3-3.3333-0.66667-4.6667-1.6667-4-3zm-113 84l-16-7-3-3c-2.6667-1.3333-2.3333-1.6667 1-1 2.6667 0.66667 9 3.6667 19 9 10 4.6667 15.667 7.3333 17 8 0.66666 1.3333 0.33334 2-1 2s-7-2.6667-17-8zm-30 56h-6 1v-1h1v-1h2v-1h1v-1h3l1-1c0.66666-0.66666 7-2.6667 19-6 12-4 18-5.6667 18-5 0 0.66666-5.6667 3.3333-17 8-11.333 4-19 6.6667-23 8z" fill="#6b2215" stroke="#6b2215"/>
  <path d="m238 341l2-2v2c0 0.66666-0.33334 1-1 1v1h-1v3l-1 1-1 1v2l-10 19c-5.3333 12.667-8.3333 19.667-9 21l-1 2v-1h-1v1h-1v-4h-1v-1l1-1v-1c0-1.3333 0.66666-3.3333 2-6 1.3333-2 4.3333-7.3333 9-16l7-14h1v-1h1v-1l1-1 1-1v-2h1v-1c0.66666 0 1-0.33334 1-1z" fill="#cfac26" stroke="#cfac26"/>
  <path d="m326 240v-1h6l1 1 1 1h1v1h1l2 6c1.3333 4 1.6667 8.6667 1 14-0.66666 5.3333-1.3333 8.3333-2 9-0.66666 1.3333-1.3333 2-2 2h-1v1h-1c-0.66666 0.66666-1.3333 1-2 1h-1v-1c0-0.66666 0.66666-1.6667 2-3s2.3333-4.3333 3-9c0.66666-4.6667 0.33334-9-1-13l-2-6h-1v-1h-1v-1h-5v-1h1z" fill="#cfac27" stroke="#cfac27"/>
  <path d="m244 127l-16-7-3-3c-2.6667-1.3333-2.3333-1.6667 1-1 2.6667 0.66667 9 3.6667 19 9 10 4.6667 15.667 7.3333 17 8 0.66666 1.3333 0.33334 2-1 2s-7-2.6667-17-8z" fill="#c8a422" stroke="#c8a422"/>
  <path d="m205 663l1-1v4c0.66666 3.3333 1.3333 4.6667 2 4v30l1 1v1h-1c-0.66666 0-1.3333-1-2-3-1.3333-2-2.6667-2.6667-4-2l-3 1v-1c-0.66666-0.66669-1-1.3333-1-2 0-1.3333-1.3333-2-4-2h-3l-3 1c-1.3333 0.66669-8 2.3333-20 5l-19 5v2h-2v-1l1-1v-9h-1v-1h-1v-1h4c0.66666 0 9.6667-3.6667 27-11 18-7.3333 27-12.333 27-15v-4h1z" fill="#612415" stroke="#612415"/>
  <path d="m370 301h2v1h1l3 5c2.6667 4 6 7 10 9s13.333 5.6667 28 11 26 10.333 34 15c8 4.6667 13.667 8.6667 17 12 3.3333 3.3333 6.3333 7 9 11 1.3333 3.3333 2.6667 8.3333 4 15s1.6667 18 1 34c-0.66669 16-2.6667 31.667-6 47s-6.3333 25.333-9 30c-2.6667 4-4.3333 6.3333-5 7l-1 1c-0.66669 0-1 0.33331-1 1h-1c-1.3333 0.66669-8.6667 2.3333-22 5l-19 4-1 1-2 1h-2v1h-1v1h3l2-1 2-1 14-2c10-1.3333 15.333-2 16-2 0.66669 0 2-0.33331 4-1l2-1h1l1 1v2l-1 1-1 1-6 17c-4 10.667-6 16.333-6 17v1h-2c-0.66669 0-2-0.66669-4-2-2 0-9-0.33331-21-1l-18-1 1 1 1 1h7l14 2c9.3333 1.3333 14.667 2.3333 16 3 0.66669 0.66669 2 1 4 1h2v1h1l-1 5c-1.3333 2.6667-3.3333 6.6667-6 12s-4.3333 8-5 8v1c-0.66669 0-1 0.33331-1 1-0.66669 0-5.3333-1.6667-14-5l-12-5h-5l1 1 1 1h3l1 1 1 1h1l10 5c6.6667 3.3333 10.667 5 12 5h2v2l-1 1v1l-6 7c-2.6667 4.6667-4.3333 7.6667-5 9v2l-4 4-5 5h-1c0-0.66669-0.33331-1-1-1s-1 0.33331-1 1c-0.66669 0.66669-2.3333 2-5 4s-5.6667 3-9 3-6.3333-1.3333-9-4c-2-2.6667-3.3333-4-4-4-0.66669 0-2.3333-2-5-6l-4-5v-1c-0.66669 0-4.6667-5.3333-12-16l-12-16v-1c-0.66669-0.66669-1-2.3333-1-5s1-4.6667 3-6c2-2 3-5 3-9v-7h2v-1h8l7-1h-1v-1h-1v-1h-1c-0.66669 0-1.3333-0.33331-2-1v-15c0-1.3333 0.33331-2.6667 1-4v-1c0.66669 0 2-2.6667 4-8s3.3333-11 4-17c0.66669-6 0.33331-11-1-15v-57l-1 1-1 1v4l-1 2-1 1v7c-1.3333 4-1.6667 11-1 21 0.66669 10 1 17.667 1 23v8h-2v-1l-1-1-1-1v-2l-1-1-1-1v-3l-1-1c-0.66669-0.66669-1.3333-3-2-7-0.66669-4-1.6667-11.333-3-22 0-10 0.66669-18.667 2-26 1.3333-7.3333 3.3333-15.333 6-24l4-14v-3l1-1 1-1v-3l-1 1-1 1v1h-1v1h-1s-0.66669 0.66666-2 2h-2v1h-1v-3c0-1.3333-0.33331-2-1-2h-2c-0.66669 0.66666-1.3333 1-2 1-0.66669 0-1.3333-0.66666-2-2 0-0.66666-0.33331-0.66666-1 0s-2.3333 1-5 1h-4l1-1c0.66666 0 1-0.33334 1-1 0-1.3333-0.66666-2-2-2-0.66666 0-0.66666-0.66666 0-2 1.3333 0 1.3333-0.33334 0-1-0.66666-0.66666-0.66666-1.3333 0-2 0-0.66666-0.33334-1-1-1s-1.6667-1.6667-3-5l-1-5s2-3.3333 6-10l6-9h1c0.66669-0.66666 0.66669-1 0-1h-1v-1c0-0.66666 0.33331-1 1-1 0-0.66666 0.66669-2 2-4 1.3333-2.6667 3-4.3333 5-5 2-0.66666 3-1.3333 3-2 0-0.66666-0.66669-1.3333-2-2-1.3333-0.66666-1.3333-1.3333 0-2 1.3333 0 2.6667-1.6667 4-5 0.66669-2.6667 1.3333-4 2-4 0.66669 0 1-0.66666 1-2s0.33331-2 1-2 1-0.66666 1-2c0-0.66666 1-1.3333 3-2z" fill="#702619" stroke="#702619"/>
  <path d="m358 519l2-6h2c0.66669 0 1 0.33331 1 1v1c-0.66669 1.3333-1 2.6667-1 4v15c0.66669 0.66669 1.3333 1 2 1h1v1h1v1h1l-7 1c-4.6667 0.66669-7.3333 1-8 1h-1v-1c0.66669-0.66669 0.33331-1-1-1l-1-1c0-0.66669 1-1 3-1 2-1.3333 3-3 3-5-0.66669-2.6667 0.33331-6.3333 3-11z" fill="#d9bf2e" stroke="#d9bf2e"/>
  <path d="m414 606l3-3 7 31c4 20.667 6.3333 31.333 7 32l1 1v3h-26c-0.66669-0.66669-1.6667-8-3-22s-2.3333-21-3-21c-0.66669 0-1 4-1 12 0.66669 7.3333 1.3333 14.667 2 22l1 10v30c0 19.333 0.33331 32.667 1 40v11h1c1.3333 0.66669 6.6667 1 16 1h14l-2 1h-19c-11.333-0.66669-23.667-0.66669-37 0h-25c-4-0.66669-13.667-1-29-1h-176 4v-28l-1-10h3c1.3333 0 9.3333-3 24-9 14.667-5.3333 22.333-8 23-8l3-1c1.3333-0.66669 2.6667-0.33331 4 1 0.66666 2 1.3333 3 2 3v1h1v1h1l1 1 1 1 4-1c2.6667-0.66669 5.3333-1 8-1 2 0 3.6667 0.66669 5 2h6c2-0.66669 4-1.6667 6-3 1.3333-0.66669 3.6667-1 7-1 4 1.3333 7.3333 1 10-1 2-2 4.6667-3.3333 8-4 4-0.66669 6-1.6667 6-3 1.3333-1.3333 2-2.3333 2-3v-1l1-2 1-2v-2h1v-1h1v-1c0-0.66669 0.33334-1.3333 1-2 0.66666 0 2-4 4-12 2-7.3333 4.3333-11.333 7-12 2-1.3333 8.3333-4.3333 19-9l16-7 7-3c5.3333-2 8-3.3333 8-4h2l1-1h2l1-1 1-1 15-6c10.667-4 17.333-4.6667 20-2 2 1.3333 4.6667 2 8 2 2.6667 0 6-2 10-6 4.6667-2.6667 7-4.3333 7-5h1v-1c0.66669 0 1-0.33331 1-1h1c0-0.66669 1.3333-2 4-4z" fill="#6b2115" stroke="#6b2115"/>
  <path d="m396 542l-1-1 18 1c12 0.66669 19 1 21 1 2 1.3333 3.3333 2 4 2h2v2c0 0.66669 0.33331 1.3333 1 2v1h-1c-0.66669-0.66669-2-1-4-1-2.6667-1.3333-8.6667-2.6667-18-4l-14-2h-7l-1-1z" fill="#c4a330" stroke="#c4a330"/>
  <path d="m367 374l1-1v3l-1 1-1 1v3l-4 14c-2.6667 8.6667-4.6667 16.667-6 24-1.3333 7.3333-2 16-2 26 1.3333 10.667 2.3333 18 3 22 0.66669 4 1.3333 6.3333 2 7l1 1v5h-1v-1h-1v-1h-1v-1l-1-1v-2l-1-1c-0.66669-1.3333-1.6667-5-3-11s-2-13.667-2-23c0-9.3333 0.66669-17.333 2-24 1.3333-6 3.6667-14 7-24l6-14v-1h1v-1l1-1z" fill="#d2b02b" stroke="#d2b02b"/>
  <path d="m328 313h1l-5 6c-4 3.3333-6 5.6667-6 7-1.3333 1.3333-2 2.3333-2 3v1h-1v1h-1v1l-1 1h-1c-0.66666 0-2 1.3333-4 4l-3 2-1 1-1 1h-7v-1h1v-1h1v-1l1-1h3l7-8 11-11c2.6667-2 4-3.3333 4-4h2c0-0.66666 0.66666-1 2-1z" fill="#c7a024" stroke="#c7a024"/>
  <path d="m413 754h17l1 1c0.66669 1.3333 1.3333 2 2 2h1v1h1v1c-0.66669 0.66669 0.33331 2.6667 3 6 2.6667 4 4 5.6667 4 5h1v-1h1v2c0 0.66669-0.66669 1.3333-2 2-2 0.66669-3 1.3333-3 2 0 0.66669 0.66669 1.6667 2 3 1.3333 0.66669 1.6667 2 1 4v3s-0.33331 0.66669-1 2v2h2l2-2h2c0.66669 0 1-0.33331 1-1v-1l1 1 1 1-1 3c0 2 0.33331 3.3333 1 4 0 0.66669 0.66669 1.6667 2 3 0.66669 1.3333 1 2.3333 1 3h-1v1h1v1l-9 7c-6.6667 4-12.667 9-18 15-5.3333 5.3333-9.3333 11.667-12 19-4 7.3333-6.6667 15.333-8 24-2 8-13 12-33 12h-30v-2l-1-1v-1l-1-6c0-4-0.33334-6-1-6s-1.3333-1-2-3c0-1.3333-0.66666-2-2-2l-1-1h-1v-2h1c0.66666 0 1.3333 0.33331 2 1 0.66666 0 1.3333-0.33331 2-1 0.66666-1.3333 0.66666-2.3333 0-3-0.66666-0.66669-0.66666-1 0-1 0.66666-0.66669 0.66666-2 0-4l-1-3c-0.66666 0.66669-1 0.33331-1-1-0.66666-0.66669-0.33334-1.3333 1-2 0.66666 0 1.3333-0.66669 2-2 0-1.3333 0.66666-2 2-2 0.66666-0.66669 1-1.3333 1-2 0-0.66669-0.33334-1-1-1s-1-2-1-6c0.66666-4 1.6667-6 3-6 1.3333-0.66669 2.6667-2.6667 4-6 2-4 2-6.3333 0-7-1.3333 0-1.6667-0.66669-1-2 0.66669-2 0.66669-3.3333 0-4-0.66669 0-0.66669-1.3333 0-4s0.66669-4 0-4-1-0.66669-1-2c0-0.66669 0.33331-1.3333 1-2l1-1s0.33331-0.66669 1-2c0.66669-0.66669 1-2 1-4v-4c0-1.3333 0.66669-2.6667 2-4s2-3.6667 2-7c0.66669-3.3333 1.3333-5 2-5 0.66669 0 1-1.6667 1-5l1-4h-1v-1h19c13.333-0.66669 25.667-0.66669 37 0z" stroke="#000"/>
  <path d="m350 335v-1 1c0 1.3333-2.3333 5-7 11l-6 9-8 14c-4.6667 10-7.3333 15.333-8 16l-1 2v1l-1 1-1 2h-1v1h-1v1h-2v-3l1-1 1-2v-2l1-1c0.66666-0.66666 1-1.6667 1-3 0-0.66666 3-5.3333 9-14l8-14v-1h1v-2h1v-1h1v-1h1v-1h1v-1c0-0.66666 1.6667-2.6667 5-6l4-5h1z" fill="#c9a224" stroke="#c9a224"/>
  <path d="m398 568l-1-1h5l12 4c7.3333 2.6667 11.667 4.3333 13 5h2v5c0.66669 0.66669 0.66669 1 0 1v-1h-2c-1.3333 0-5.3333-1.6667-12-5l-10-5h-1l-1-1-1-1h-3l-1-1z" fill="#cbae33" stroke="#cbae33"/>
  <path d="m211 395l2-7h1v4h1v-1h1v1l-1 5c-0.66666 3.3333-0.33334 6.6667 1 10 0.66666 4 2 6.6667 4 8 2.6667 2.6667 6.6667 4.3333 12 5 5.3333 0.66669 11 1.3333 17 2 6 0.66669 11 1 15 1h7l4 1 4 1h2v1h1v1h-1v1h-29c-4-0.66669-9.3333-1-16-1-6-1.3333-10.667-2.3333-14-3-4-1.3333-6-2.3333-6-3 0-0.66669-0.66666-1.3333-2-2-0.66666 0-1.3333-1-2-3-1.3333-2-2-5-2-9 0-3.3333 0.33334-7.3333 1-12z" fill="#dac12c" stroke="#dac12c"/>
  <path d="m334 273h1v1c0 0.66666-0.33334 1-1 1s-1 2.6667-1 8c0.66666 5.3333 1 10.667 1 16 0 5.3333-0.66666 9-2 11s-2.3333 3-3 3h-1c-1.3333 0-2 0.33334-2 1h-1v-1c0.66666-0.66666 1.6667-2.3333 3-5s2-5.6667 2-9v-13l-2-8 1-1 1-2 2-1c0.66666-0.66666 1.3333-1 2-1z" fill="#c8a025" stroke="#c8a025"/>
  <path d="m347 537l2-1h1c1.3333 0 2 0.33331 2 1v1l-1 1h-1v7c0 4-1 7-3 9-2 1.3333-3 3.3333-3 6s0.33331 4.3333 1 5v1l-1 1v1h-4c-0.66666 0-2.6667 1-6 3l-5 3h-1l-1 1-1 1h-4v-1l1-1h2l1-1 1-1h1l1-1c0.66666-0.66669 2.3333-1.6667 5-3s4.3333-3.6667 5-7c0.66666-3.3333 1.6667-6.3333 3-9 1.3333-2 2.3333-5 3-9 0.66669-4 1.3333-6.3333 2-7z" fill="#dabf2d" stroke="#dabf2d"/>
  <path d="m369 418l1-1v57c1.3333 4 1.6667 9 1 15-0.66669 6-2 11.667-4 17-2 5.3333-3.3333 8-4 8 0-0.66669-0.33331-1-1-1h-1v-2c0.66669-1.3333 1-2.6667 1-4 1.3333-2 2-5.3333 2-10 1.3333-4 0.66669-7.3333-2-10l-2-5h-1v-1h-1v-1l-1-1v-1h2v1l1 1v-2l1 1 1 1v2l1 1 1 1v1h2v-8c0-5.3333-0.33331-13-1-23s-0.33331-17 1-21v-7l1-1 1-2v-4l1-1z" fill="#d7ba2d" stroke="#d7ba2d"/>
  <path d="m89 716h1v1l1 1 1 1v3l1 1 1 1v2h-1v1h-2l-13 6c-8 2.6667-12.667 4.3333-14 5l-1 1h-2l-1 1-1 1c-0.66667 0-1 0.33331-1 1v1h-1c-0.66667 0-1-0.33331-1-1-0.66667-0.66669-5.3333 0.33331-14 3l-12 4-3 2c-2 0.66669-3 1.3333-3 2h-7c-4.6667 0-7 0.33331-7 1h-1c0-0.66669-1-1-3-1h-3l-1-1-2-1v-6l4-1c2.6667-0.66669 5.3333-1 8-1 3.3333 0 10.333-2 21-6s16.333-6.3333 17-7l1-2v1h5v-1h1v-1h1c1.3333 0 6.6667-1.6667 16-5l13-5h2v-1z" fill="#dfd53b" stroke="#dfd53b"/>
  <path d="m322 639h3l-16 7c-10.667 4.6667-17 7.6667-19 9-2.6667 0.66669-5 4.6667-7 12-2 8-3.3333 12-4 12-0.66666 0.66669-1 1.3333-1 2v1h-1v1h-1v2l-1 2-1 2-1-1-1-1v-4h1v-1h1v-1c0-0.66669 0.66666-1.3333 2-2 0.66666-1.3333 1.6667-4.6667 3-10 2-5.3333 3.3333-9.3333 4-12 0.66666-2.6667 7-6 19-10 12-5.3333 18.667-8 20-8z" fill="#cca925" stroke="#cca925"/>
  <path d="m348 789v1l-1 1c-0.66669 0.66669-1 1.3333-1 2 0 1.3333 0.33331 2 1 2s0.66669 1.3333 0 4-0.66669 4 0 4c0.66669 0.66669 0.66669 2 0 4-0.66669 1.3333-0.33331 2 1 2 2 0.66669 2 3 0 7-1.3333 3.3333-2.6667 5.3333-4 6-1.3333 0-2.3333 2-3 6 0 4 0.33334 6 1 6s1 0.33331 1 1-0.33334 1.3333-1 2c-1.3333 0-2 0.66669-2 2-0.66666 1.3333-1.3333 2-2 2-1.3333 0.66669-1.6667 1.3333-1 2 0 1.3333 0.33334 1.6667 1 1l1 3c0.66666 2 0.66666 3.3333 0 4-0.66666 0-0.66666 0.33331 0 1s0.66666 1.6667 0 3c-0.66666 0.66669-1.3333 1-2 1-0.66666-0.66669-1.3333-1-2-1h-1v2h1l1 1c1.3333 0 2 0.66669 2 2 0.66666 2 1.3333 3 2 3 0.66666 0 1 2 1 6l1 6v1l1 1v2h-111v-1c0-0.66669 0.33334-1 1-1h1v-1h1v-1h-2c-1.3333 0-2-0.66669-2-2 0.66666-1.3333 0-4.3333-2-9-1.3333-4.6667-2.3333-7-3-7-0.66666 0-1-0.66669-1-2 0.66666-0.66669 0.66666-1.3333 0-2-0.66666 0-1-1.3333-1-4 0-2 0.33334-3 1-3 0.66666-0.66669 1.6667-2.3333 3-5l2-4h1c0.66666 0 2-1.3333 4-4l4-4c1.3333-1.3333 2-2.6667 2-4 0.66666-0.66669 2-1.3333 4-2 2 0 3-0.33331 3-1 0.66666-0.66669 1.3333-1 2-1 0 0.66669 0.66666 1 2 1 2-0.66669 3.3333-0.66669 4 0 0 0.66669 0.66666 1 2 1 0.66666 0 2-1 4-3s3.3333-3 4-3h2v-2c0-1.3333-0.66666-2-2-2s-2-0.66669-2-2v-1h1c0.66666-0.66669 1-1.3333 1-2v-1h1c0.66666 0 1.6667-0.33331 3-1 0.66666-0.66669 2-1.3333 4-2 2.6667-0.66669 4.3333-1.3333 5-2 0.66666-0.66669 1.3333-1.6667 2-3l1-1v5h3v1h1v1h2l1-1c0.66666-0.66669 1-0.66669 1 0s0.66666 1 2 1c1.3333 0.66669 2.3333 0.33331 3-1l1-2c1.3333 0 2-0.33331 2-1s0.33334-0.33331 1 1c0.66666 2 1.6667 2.6667 3 2 1.3333 0 2.6667-0.66669 4-2 0.66666-0.66669 2-1.6667 4-3 1.3333-1.3333 1.6667-2.6667 1-4-0.66666-1.3333-0.33334-1.6667 1-1 2 0.66669 4 0.33331 6-1 1.3333-1.3333 2.6667-2 4-2 2 0 4 0.66669 6 2 2.6667 1.3333 5.3333 1 8-1 2.6667-1.3333 4.3333-2.3333 5-3 0.66666-1.3333 2-1.6667 4-1 2 0.66669 3 1 3 1z" stroke="#000"/>
  <path d="m457 499h1v1c0 0.66669-0.33331 1-1 1-0.66669 0.66669-1.3333 1.6667-2 3-0.66669 0.66669-1 1.3333-1 2l-1-1h-1l-2 1c-2 0.66669-3.3333 1-4 1-0.66669 0-6 0.66669-16 2l-14 2-2 1-2 1h-3v-1h1v-1h2l2-1 1-1 21-4c13.333-4 20.333-6 21-6z" fill="#c4a22d" stroke="#c4a22d"/>
  <path d="m419 46h4l2 1c2 1.3333 3 2.3333 3 3v4c-1.3333 2-3.3333 4.3333-6 7-2.6667 2-2 6 2 12 2.6667 6.6667 9.6667 18.667 21 36 10.667 17.333 17 25.667 19 25 1.3333-0.66667 8-4.3333 20-11 12.667-8 19.667-11.667 21-11 0.66669 0 3.3333 3.6667 8 11 4.6667 8 0.33331 16.333-13 25-13.333 8.6667-20 14.333-20 17 0.66669 3.3333-3 7.3333-11 12-8 4-12.667 5.3333-14 4-1.3333-1.3333-4.6667-0.66666-10 2-6 2.6667-10 4.6667-12 6-2.6667 1.3333-7 2-13 2s-11.333-0.66666-16-2c-5.3333-1.3333-8.6667-2-10-2h-1l-1-1-2-1h-1v-1h-1v-4h1v-1h2v-1h1v-1h1c0.66669 0 7-4 19-12 12.667-6.6667 19.667-11 21-13 2-1.3333-3.6667-12.667-17-34l-20-32v-1h1l1-1 1-1h2l1-1 1-1h1l4-4c2.6667-1.3333 4.3333-3.3333 5-6 0.66669-2.6667 0-6-2-10l-4-7v-1c0.66669 0 1-0.66667 1-2v-2s0.66669-0.66667 2-2c0.66669-1.3333 1.6667-2 3-2 0.66669-0.66667 1.3333-0.66667 2 0 0 0.66667 1.3333 1 4 1z" fill="#692821" stroke="#692821"/>
  <path d="m272 687l1 1 1 1v1c0 0.66669-0.66666 1.6667-2 3 0 1.3333-2 2.3333-6 3-3.3333 0.66669-6 2-8 4-2.6667 2-6 2.3333-10 1-3.3333 0-5.6667 0.33331-7 1-2 1.3333-4 2.3333-6 3h-6c-1.3333-1.3333-3-2-5-2-2.6667 0-5.3333 0.33331-8 1l-4 1-1-1-1-1h-1v-1h-1v-2h1l1 1h1v1h1v1h2l4-2c2.6667-1.3333 5-1.6667 7-1 2 0.66669 4.3333 1 7 1 3.3333 0 6-0.66669 8-2 1.3333-1.3333 3.3333-2 6-2h6c2.6667 0 4.6667-0.66669 6-2s3.3333-2 6-2c3.3333 0 5.3333-1 6-3l2-3z" fill="#c5a023" stroke="#c5a023"/>
  <path d="m250 275l-1-2h1c1.3333 0 2.3333 0.33334 3 1l1 1v1c0.66666 0.66666 1 1.6667 1 3 0 0 1.6667 0.66666 5 2 2.6667 1.3333 4.6667 3.3333 6 6 1.3333 3.3333 2.3333 6 3 8l1 2v2l-1 2v3h2l1 2c0.66666 0.66666 2 1.3333 4 2l3 1h-3v1h-1v1h-7v3l-1-1c-0.66666-1.3333-1.3333-3.3333-2-6-0.66666-2.6667-1.6667-4-3-4l-1-1v-1c-0.66666 0-2.3333-2-5-6-2.6667-4.6667-4.3333-8.6667-5-12l-1-5v-3z" fill="#944e10" stroke="#944e10"/>
  <path d="m370 605l-4-5h2c0.66669 0.66669 1 0.66669 1 0l4 5c2.6667 4 4.3333 6 5 6 0.66669 0 2 1.3333 4 4 2.6667 2.6667 5.6667 4 9 4s6.3333-1 9-3 4.6667-3.6667 6-5c0.66669-1.3333 1.3333-2 2-2 0.66669 0 1 0.33331 1 1s-0.33331 1-1 1v1h-1c0 0.66669-2.3333 2.3333-7 5-4 4-7.3333 6-10 6-3.3333 0-6-0.66669-8-2-2.6667-2.6667-9.3333-2-20 2l-15 6-1 1-1 1h-2l-1 1h-2v-1h1l1-1 1-1h2l1-1 1-1 13-6c8-4 12.667-6 14-6h1v-2l-1-1v-1c0-0.66669-1.3333-2.6667-4-6z" fill="#cead27" stroke="#cead27"/>
  <path d="m202 664h2v3c0 2.6667-9 7.6667-27 15-17.333 7.3333-26.333 11.333-27 12h-2c0-0.66669-0.33334-1-1-1h-1v1h-1c-0.66666 0.66669-2.6667 1.6667-6 3l-5 2h-2l-1 1h-1v-2h2v-5h-2v-2h-1l6-3c4-2 6.3333-3 7-3h5v-1h1v-1h2l14-6c9.3333-4 17-6.6667 23-8 6-2.6667 10-4 12-4h3v-1z" fill="#1c0e1d" stroke="#1c0e1d"/>
  <path d="m190 814l5-1s0.33334 0.33331 1 1v3c-0.66666 1.3333-0.66666 2 0 2 0 0.66669 0.33334 1.3333 1 2 0 1.3333 0.66666 1.6667 2 1 1.3333 0 2 0.33331 2 1s0.66666 1.3333 2 2c0.66666 1.3333 1.3333 2.3333 2 3 0 0.66669 1.3333 1.3333 4 2 2 0.66669 3 1.3333 3 2 0 0.66669 0.66666 1.3333 2 2 1.3333 0 2 0.33331 2 1 0 1.3333 0.33334 1.3333 1 0 0.66666-0.66669 2.3333-0.66669 5 0h6l1-1h1v3l-2 4c-1.3333 2.6667-2.3333 4.3333-3 5-0.66666 0-1 1-1 3 0 2.6667 0.33334 4 1 4 0.66666 0.66669 0.66666 1.3333 0 2 0 1.3333 0.33334 2 1 2s1.3333 1 2 3c0.66666 2 1.3333 3 2 3 1.3333 0 2 2 2 6-0.66666 4-0.33334 6 1 6h2v1h-1v1h-1c-0.66666 0-1 0.33331-1 1v1h-58c-17.333 0-26.667-1.6667-28-5l-2-5-1-1-1-1v-2l-1-1v-3l1-1v1h1v1c0.66666 0 1-0.33331 1-1s1-0.66669 3 0c2 0 4.3333-0.66669 7-2s4.3333-2.6667 5-4c0.66666-1.3333 1.3333-2 2-2 0.66666 0 1-0.33331 1-1s0.66666-1.3333 2-2c2-0.66669 2-1.6667 0-3-1.3333-1.3333-1.3333-2 0-2 0.66666 0 1.3333-1.6667 2-5 0.66666-3.3333 1.3333-5 2-5 0.66666 0 1-0.66669 1-2 0-0.66669 0.33334-1 1-1 0.66666-0.66669 1.6667-2 3-4 0.66666-2.6667 2-4.3333 4-5 2-0.66669 3-0.66669 3 0s0.33334 1 1 1c0.66666-0.66669 1-0.66669 1 0l1 1h2v-1h1v-5c0-2.6667 1.3333-4.3333 4-5z" stroke="#000"/>
  <path d="m386 30v-1h4v2h1v1h1l5 8c3.3333 4.6667 5.3333 7.3333 6 8 0.66669 0.66667 1.3333 1.3333 2 2v1h-1c-0.66669 0-1.6667-0.33333-3-1l-2-1c-0.66669-0.66667-1-1-1-1v-1h-1c-0.66669 0-1.6667-1-3-3l-2-3v-1l-1-1-1-1v-1h-1v-1h-1v-1h-2v2l-1 1-1 1v4l2 4c0 2 0.33331 3.3333 1 4l1 1v3h1v1h1v2h-1l-1-1-1-1-1-1v-1l-1-1-1-2v-1s-0.33331-0.33333-1-1-1-3-1-7v-8l1-1v-1h2v-1l1-1z" fill="#bc9422" stroke="#bc9422"/>
  <path d="m314 391h4l-6 11c-4 7.3333-8 13-12 17-4.6667 4-8.6667 6.3333-12 7-3.3333 0.66669-5.3333 1.3333-6 2h-1v-1h1v-1h-1v-1h-2l-4-1-4-1h5l8-2c4.6667-1.3333 8.6667-3.3333 12-6 4-2.6667 8-7.3333 12-14s6-10 6-10z" fill="#d6ba2c" stroke="#d6ba2c"/>
  <path d="m248 271v-2l8 4c6 2.6667 9.6667 5.3333 11 8 2 2.6667 3 5.3333 3 8 1.3333 3.3333 2 6.3333 2 9v4l-1 1v1h-2v-3l1-2v-2l-1-2c-0.66666-2-1.6667-4.6667-3-8-1.3333-2.6667-3.3333-4.6667-6-6l-5-2c0-1.3333-0.33334-2.3333-1-3v-1l-1-1c-0.66666-0.66666-1.6667-1-3-1h-1c-0.66666 0-1-0.66666-1-2z" fill="#c69a1b" stroke="#c69a1b"/>
  <path d="m237 235l1 1v1l1 12c0.66666 8 1.3333 13.333 2 16 0.66666 3.3333 1.3333 5.3333 2 6l1 1 2 3 3 3h1l1 5c0.66666 3.3333 2.3333 7.3333 5 12 2.6667 4 4.3333 6 5 6v1l4 11c2 6.6667 6 12.667 12 18 5.3333 5.3333 9.3333 8.3333 12 9l4 1h10l1-1 1-1 3-3c2.6667-2 4.3333-3.3333 5-4h1c0.66666 0.66666 1 0.66666 1 0h1v-1h2c1.3333 0 2.6667 0.33334 4 1 2 0.66666 3 0.66666 3 0s0.33334-1 1-1h1l-1 3v4c0.66666 0.66666 1.3333 1 2 1 0.66666 0 1 1.3333 1 4 0.66666 2 1 2.6667 1 2 0.66666-1.3333 1.6667-2 3-2h2v2l-1 1v7h1l-8 14c-6 8.6667-9 13.333-9 14 0 1.3333-0.33334 2.3333-1 3l-1 1v2l-1 2-1 1v1s-2 3.3333-6 10-8 11.333-12 14c-3.3333 2.6667-7.3333 4.6667-12 6l-8 2h-12c-4 0-9-0.33331-15-1s-11.667-1.3333-17-2c-5.3333-0.66669-9.3333-2.3333-12-5-2-1.3333-3.3333-4-4-8-1.3333-3.3333-1.6667-6.6667-1-10l1-5 1-2c0.66666-1.3333 3.6667-8.3333 9-21l10-19v-2l1-1 1-1v-3h1-3v2l-1 1-1 1v1h-1v1h-1l-7 14c-4.6667 8.6667-7.6667 14-9 16-1.3333 2.6667-2 4.6667-2 6v1l-1 1v1l-2 7c-0.66666 4.6667-1 8.6667-1 12 0 4 0.66666 7 2 9 0.66666 2 1.3333 3 2 3 1.3333 0.66669 2 1.3333 2 2 0 0.66669 2 1.6667 6 3 3.3333 0.66669 8 1.6667 14 3 6.6667 0 12 0.33331 16 1h7v1l1 1c0 0.66669 0.33334 1 1 1h1v1l1 1c0 1.3333-0.33334 2-1 2-1.3333 0-2.3333 1-3 3-0.66666 2-0.66666 3 0 3 0.66666 0.66669 1.3333 1.3333 2 2 0.66666 1.3333 1 2.6667 1 4v1h-1v1h-1l-1 1c-0.66666 0-1-0.33331-1-1s-0.66666-0.66669-2 0c-1.3333 0-1.6667 0.33331-1 1 0.66666 0.66669 0.66666 1.3333 0 2-0.66666 0.66669-1 1.3333-1 2 0 0.66669-0.33334 1.6667-1 3s-1.6667 2.3333-3 3c-1.3333 0-2.3333 1-3 3-0.66666 2-1.3333 2.6667-2 2-0.66666 0-1.3333-0.33331-2-1-0.66666 0-1 0.33331-1 1v2h1l1 1c1.3333 0 2 0.66669 2 2v2l-1-1-1-2s-0.33334 0.33331-1 1c-0.66666 0-1-0.33331-1-1v-1h-1v1h-1v6c1.3333 2.6667 1.6667 4.6667 1 6-0.66666 0.66669-0.66666 1.3333 0 2 0 0.66669-0.33334 1-1 1s-1.3333-0.33331-2-1h-1c-0.66666 0.66669-1 3.3333-1 8v8h-2c-0.66666 0-1 0.33331-1 1s-0.66666 0.66669-2 0c-2-0.66669-3-0.33331-3 1-0.66666 1.3333-1.3333 2-2 2-1.3333 0-2.3333 1.3333-3 4-0.66666 2-1 3.3333-1 4v3c0 1.3333-0.33334 1.6667-1 1-1.3333-1.3333-2-1.3333-2 0-0.66666 0.66669-1 1-1 1v1l1 1c0 0.66669-0.33334 1-1 1s-0.66666 0.33331 0 1 1.3333 1 2 1v1l-1 3c0 1.3333-0.33334 2-1 2s-0.66666 1.3333 0 4 0.33334 5-1 7c-2 1.3333-2.6667 2.3333-2 3 0 1.3333-0.33334 2-1 2s-1.3333 0.33331-2 1l-2 1h-1v1h-17c-11.333-0.66669-20-1-26-1l-10-1v-1l-4-6c-1.3333-3.3333-3.3333-8.6667-6-16-1.3333-7.3333-2.3333-19.667-3-37-0.66666-17.333-0.33334-29.333 1-36 0-6.6667 1.3333-17 4-31 2.6667-14.667 5.3333-29 8-43s5.6667-31.667 9-53c3.3333-20.667 5-39.333 5-56v-26h1v1h1v3h2c0.66666 0 1 0.33334 1 1s0.33334 1 1 1 1-0.33334 1-1 1-1 3-1 3 0.66666 3 2c0 2 0.33334 3 1 3 1.3333 0 2-0.66666 2-2 0.66666-2 1.3333-2.6667 2-2 0 0.66666 0.66666 1 2 1h1l1 2c0 1.3333 0.33334 1.6667 1 1 0.66666 0 1.3333 0.33334 2 1 0 0.66666-0.33334 1.3333-1 2-1.3333 0-1.6667 0.66666-1 2 0.66666 1.3333 1 2.6667 1 4v1h1l1 1 2-1c1.3333-0.66666 2.3333-0.66666 3 0 0.66666 0 1 0.33334 1 1 0.66666 0 2-0.66666 4-2 1.3333-1.3333 1.6667-2 1-2h7v-2h-1c-0.66666 0-1-1.3333-1-4l-1-4h1c0.66666 0 1 0.33334 1 1s0.33334 1 1 1h4v-1l-1-1c-0.66666-0.66666-0.66666-2 0-4 0.66666-2.6667 2.3333-4 5-4s4-0.66666 4-2c0-0.66666 0.66666-1 2-1s2 0.33334 2 1 1 0.66666 3 0 3.3333-0.66666 4 0zm2 104h1-1zm19 107h1c0 0.66669-0.33334 1-1 1v-1zm-20 34h1c0 0.66669-0.33334 1-1 1v-1z" fill="#6d2116" stroke="#6d2116"/>
  <path d="m159 566v-1h18c12 0 23.667 0.33331 35 1h22c4 0.66669 9 1 15 1h9l4 1 3 1h-41c-18.667 0-34-0.33331-46-1l-19-1v-1z" fill="#c5a227" stroke="#c5a227"/>
  <path d="m345 567l12 16c7.3333 10.667 11.333 16 12 16v1c0 0.66669-0.33331 0.66669-1 0h-2l-2-2-2-2v-1h-1s-2.3333-3.3333-7-10l-8-10v-1h-1v-1h-1v-1c0-0.66669-0.66666-1.3333-2-2l-1-1 2-1c1.3333-0.66669 2-1 2-1z" fill="#d4b629" stroke="#d4b629"/>
  <path d="m239 249l-1-12h1v1h1v6h1l2 9c0.66666 6 1.6667 10 3 12 0.66666 2.6667 1.3333 4 2 4v1h1v1c-0.66666 1.3333-0.66666 2 0 2l1 2v3h-1l-3-3-2-3-1-1c-0.66666-0.66666-1.3333-2.6667-2-6-0.66666-2.6667-1.3333-8-2-16z" fill="#d1ad22" stroke="#d1ad22"/>
  <path d="m374 54v-1h3l3 4c2 2.6667 3.3333 4 4 4h6v3h-1v1h-7v-1h-1v-1h-1s-0.66669-1.3333-2-4-2.3333-4-3-4c-0.66669 0-1-0.33333-1-1z" fill="#a7751c" stroke="#a7751c"/>
  <path d="m124 693l5-2h1v2h2v2c0 2-0.33334 3.3333-1 4h-1v1h-1l-1 1h-2c-0.66666 0.66669-0.66666 2 0 4 0 2.6667 0.33334 4 1 4 0 0 0.33334 0.33331 1 1h2v1h2v6h1v1l-5-1c-4 0-6.6667 0.66669-8 2s-4.6667 2.3333-10 3c-5.3333 0-8.6667 1.6667-10 5s-4.3333 6.3333-9 9c-4 3.3333-7.6667 5.3333-11 6-3.3333 0.66669-7.3333 1-12 1h-10v-1h-1v-1h2l1-1 1-1h2l1-1c1.3333-0.66669 6-2.3333 14-5l13-6h2v-1h1v-2l-1-1-1-1v-3l-1-1-1-1v-1h-1v1h-2l-13 5c-9.3333 3.3333-14.667 5-16 5h-1v1h-1v1h-5v-2l1-1v-2h1v-1h1v-1h1v-1h1v-1c0.66667-0.66669 2.6667-2 6-4 2.6667-2 6.6667-4 12-6l7-2h1c0.66667-0.66669 4-0.33331 10 1 5.3333 0.66669 8 0 8-2 0.66666-2 2-3.6667 4-5 2-0.66669 4.6667-1.6667 8-3 4 0 6.3333-0.66669 7-2 0.66666-1.3333 2.3333-2.6667 5-4z" fill="#2a1b25" stroke="#2a1b25"/>
  <path d="m17 753h65v2h-1v1h-1v1l2 3c1.3333 2 1.6667 4.3333 1 7 0 2-0.33333 2.6667-1 2-1.3333 0-2.3333 0.66669-3 2-0.66667 1.3333-0.33333 2.3333 1 3 0.66667 0 1 0.33331 1 1s-0.33333 1.3333-1 2c-1.3333 0-1.6667 1-1 3 0 2 0.33333 2.6667 1 2 1.3333-0.66669 1.3333-0.33331 0 1-0.66667 1.3333-1.3333 2-2 2l-2 4v2s0.33333 0.66669 1 2c0 1.3333-0.66667 2-2 2-2 0.66669-2.3333 1.3333-1 2v5h1v1h-5l-1-1c-0.66667-0.66669-5-1.6667-13-3-7.3333-1.3333-17-2.3333-29-3l-18-1v-41h1c0-0.66669 2.3333-1 7-1z" stroke="#000"/>
  <path d="m373 301v1h-3c-2 0-3 0.33334-3 1 0 1.3333-0.33331 2-1 2s-1 0.66666-1 2-0.33331 2-1 2-1 0.33334-1 1 0.33331 1 1 1 1 0.33334 1 1-0.66669 1-2 1c-0.66669 0.66666-1 1.6667-1 3s-1 2-3 2c-2 0.66666-2.3333 1.3333-1 2 1.3333 0.66666 2 1.3333 2 2 0 0.66666-1 1.3333-3 2-2 0.66666-3.6667 2.3333-5 5-1.3333 2-2 3.3333-2 4v1c-0.66669 0.66666-1 1-1 1v1l-4 5c-3.3333 2.6667-5 4.3333-5 5v1h-1v1h-1v1h-1v1h-1v2h-1v1h-1v-7l1-1v-2h-2c-1.3333 0-2.3333 0.66666-3 2 0 0.66666-0.33334 0-1-2 0-2.6667-0.33334-4-1-4s-1.3333-0.33334-2-1v-4l1-3h-1c-0.66666 0-1 0.33334-1 1s-1 0.66666-3 0c-1.3333-0.66666-2.6667-1-4-1h-2v1l-1 1v1h-1l-1-1 1-1v-1h1v-1h1v-1c0-0.66666 0.66666-1.6667 2-3 0-1.3333 2-3.6667 6-7l5-6c0.66666 0 1.6667-1.3333 3-4s2-8.6667 2-18c-1.3333-9.3333-1.6667-14.667-1-16l1-1 1-1c0.66666 0 1.3333-0.66666 2-2 0.66666-0.66666 1.3333-3.6667 2-9 0.66666-5.3333 0.33334-10-1-14l-2-6h-1v-1h-1l-1-1-1-1h-6v1h-1v1h5v1h1v1h1l2 6c1.3333 4 1.6667 8.3333 1 13-0.66666 4.6667-1.6667 7.6667-3 9s-2 2.3333-2 3v1s-0.33334 0.66666-1 2l-1 1 2 8v13c0 3.3333-0.66666 6.3333-2 9s-2.3333 4.3333-3 5v1h-1c0 0.66666-1.3333 2-4 4l-11 11-7 8h-7c-2.6667 0-5-0.33334-7-1l-2-1h-1v-1h-1v-1h-1v-1h-1v-1h-1v-1h-1v-2h-1v-1h3l1-1c0.66666-0.66666 2.3333-1 5-1h4l-2-1-1-1h-7v-1c0-0.66666-0.66666-1.3333-2-2l-2-1h-1l-1-1h-1l1 2v5h-2v-1h-1v-1h-1v-1h-1v-1h-1v-2l-1-1-1-1v-6h7v-1h1v-1h3l-3-1c-2-0.66666-3.3333-1.3333-4-2l-1-2v-1l1-1v-4c0-2.6667-0.66666-6-2-10s-3-7-5-9c-2-2.6667-5-4.6667-9-6l-7-3v-1h-1c-0.66666 0-1.3333-1.3333-2-4-1.3333-2-2.3333-6-3-12l-2-9v-3l1-2v-4c0-2.6667 0.33334-4.3333 1-5 0.66666-0.66666 1.3333-4.3333 2-11 0.66666-6 1.6667-10.333 3-13 1.3333-2.6667 3.3333-5 6-7 2.6667-2.6667 4-4.3333 4-5 0-0.66666 1.3333-1.6667 4-3 2-1.3333 3-2.3333 3-3v-1l1-1v-1h1l8-2c5.3333-1.3333 12-2 20-2s14.333 1 19 3c4 1.3333 7.3333 3 10 5s6 6 10 12c2.6667 6 8.6667 20.667 18 44 8 24 13.333 39.333 16 46 2.6667 6 4.3333 9.3333 5 10zm-113-72h-2v-1h-1v-1h-1v-1h-1v-1h-1v-1h-1v-1h-2v-1h-1v-2h2l2 1h2v2l2 1c0.66666 0.66666 2.6667 0.66666 6 0s7-2.3333 11-5c3.3333-2.6667 7-5.3333 11-8 3.3333-2.6667 7.3333-4 12-4 4 0 7 0.66666 9 2s2 1.3333 0 0h-8c-3.3333 0-6.3333 1-9 3s-6.3333 5-11 9c-5.3333 4-9.3333 6.6667-12 8h-7zm54 72v6l1 4c0 2-0.33334 3-1 3h-1v-2c-0.66666-1.3333-1-2.3333-1-3 0-0.66666-0.33334-3.3333-1-8-0.66666-5.3333-0.33334-9.3333 1-12 1.3333-2 2-1.6667 2 1v11z" fill="#742813" stroke="#742813"/>
  <path d="m170 753h3v1c0 0.66669-0.33334 1-1 1-1.3333 0-2 0.66669-2 2 0 2-0.33334 3-1 3s-1 0.33331-1 1v2h2c1.3333 0.66669 2 1.6667 2 3 0.66666 1.3333 2 2 4 2 1.3333 0.66669 2.6667 2.6667 4 6 1.3333 4 1.6667 6.3333 1 7-1.3333 0-0.33334 1 3 3 2.6667 1.3333 4 2.3333 4 3 0 0.66669 0.33334 1.3333 1 2 0.66666 0 1.3333 1.3333 2 4 0.66666 2 0.33334 4-1 6-0.66666 1.3333-1 2.3333-1 3-0.66666 0.66669-0.33334 2 1 4l2 3c0.66666 0 1.3333-0.33331 2-1h1v2l1 2v2h-1l-1-1-4 1c-2.6667 0.66669-4 2.3333-4 5v5h-1v1h-2l-1-1c0-0.66669-0.33334-0.66669-1 0-0.66666 0-1-0.33331-1-1s-1-0.66669-3 0-3.3333 2.3333-4 5c-1.3333 2-2.3333 3.3333-3 4-0.66666 0-1 0.33331-1 1 0 1.3333-0.33334 2-1 2s-1.3333 1.6667-2 5c-0.66666 3.3333-1.3333 5-2 5-1.3333 0-1.3333 0.66669 0 2 2 1.3333 2 2.3333 0 3-1.3333 0.66669-2 1.3333-2 2 0 0.66669-0.33334 1-1 1s-1.3333 0.66669-2 2c-0.66666 1.3333-2 2.6667-4 4s-3.3333 2.3333-4 3c0 0.66669-0.33334 1-1 1-1.3333-0.66669-2-1.3333-2-2 0-0.66669-0.66666-1-2-1s-2 0.33331-2 1-0.33334 1-1 1v-1h-1v-1l-1 1v2h-1l-4-6-3-5v-1c-0.66666 0-2.3333-2-5-6-2.6667-3.3333-7.3333-8.6667-14-16-7.3333-6.6667-16-12.667-26-18l-14-8h1v-1h-1v-5c-1.3333-0.66669-1-1.3333 1-2 1.3333 0 2-0.66669 2-2l-1-2v-2c1.3333-2.6667 2-4 2-4 0.66667 0 1.3333-0.66669 2-2 1.3333-1.3333 1.3333-1.6667 0-1-0.66667 0.66669-1 0-1-2-0.66667-2-0.33333-3 1-3 0.66667-0.66669 1-1.3333 1-2 0-0.66669-0.33333-1-1-1-1.3333-0.66669-1.6667-1.6667-1-3 0.66667-1.3333 1.6667-2 3-2 0.66667 0.66669 1 0 1-2 0.66667-2.6667 0.33333-5-1-7l-2-3v-1h1v-1h1v-2h88zm-3 2h1-1zm1 2h1-1z" stroke="#000"/>
  <path d="m314 301v6l1 4c0 2-0.33334 3-1 3h-1v-2c-0.66666-1.3333-1-2.3333-1-3 0-0.66666-0.33334-3.3333-1-8-0.66666-5.3333-0.33334-9.3333 1-12 1.3333-2 2-1.6667 2 1v11z" fill="#c29822" stroke="#c29822"/>
  <path d="m199 142v-1h5l2 1 2 1 28 5c18 3.3333 27 5.3333 27 6v1h-1v1h-1v-1h-6c-4 0-7.6667-0.33334-11-1-2.6667-0.66666-10-2.3333-22-5l-17-4-1-1-1-1h-3v-1h-1z" fill="#bc8f1d" stroke="#bc8f1d"/>
  <path d="m214 183h-6 1v-1h1v-1h2v-1h1v-1h3l1-1c0.66666-0.66666 7-2.6667 19-6 12-4 18-5.6667 18-5 0 0.66666-5.6667 3.3333-17 8-11.333 4-19 6.6667-23 8z" fill="#c49b20" stroke="#c49b20"/>
  <path d="m406 670c0 0.66669-0.66669 1-2 1h-2l-1-10c-0.66669-7.3333-1.3333-14.667-2-22 0-8 0.33331-12 1-12s1.6667 7 3 21 2.3333 21.333 3 22z" fill="#caa72c" stroke="#caa72c"/>
  <path d="m156 548v-4l10 1c6 0 14.667 0.33331 26 1h19l2 1h5c1.3333 0 5.3333 0.33331 12 1l10 1h-1v1h-1v2h-1v1h-1c-1.3333 0.66669-1.3333 1.6667 0 3l1 3c0.66666 0.66669 0.33334 1.6667-1 3-0.66666 0.66669-2 1.3333-4 2l-2 1h-2v1h-16c-11.333-0.66669-23-1-35-1h-18v2h-1v-1h-1v-7c-0.66666-4.6667-1-8.3333-1-11z" fill="#7e3b1a" stroke="#7e3b1a"/>
  <path d="m260 229h-2v-1h-1v-1h-1v-1h-1v-1h-1v-1h-1v-1h-2v-1h-1v-2h2l2 1h2v2l2 1c0.66666 0.66666 2.6667 0.66666 6 0s7-2.3333 11-5c3.3333-2.6667 7-5.3333 11-8 3.3333-2.6667 7.3333-4 12-4 4 0 7 0.66666 9 2s2 1.3333 0 0h-8c-3.3333 0-6.3333 1-9 3s-6.3333 5-11 9c-5.3333 4-9.3333 6.6667-12 8h-7z" fill="#cfab22" stroke="#cfab22"/>
  <path d="m188 694l3-1h3c2.6667 0 4 0.66669 4 2 0 0.66669 0.33334 1.3333 1 2v1c-0.66666 0-9 3-25 9l-24 9v-1h-3c-1.3333 0-4 0.66669-8 2l-6 1v-1h-1v-6h-2v-1h2l3-1 5-1c3.3333-0.66669 5.3333-1.3333 6-2h2v-1l19-5c12.667-3.3333 19.667-5.3333 21-6z" fill="#1e0f1f" stroke="#1e0f1f"/>
  <path d="m357 43l2-2 5 1c3.3333 0.66667 6.3333 2.3333 9 5 2 2.6667 3.3333 4.3333 4 5v1h-1v1h-1v-1h-1c0-0.66667-1.3333-2-4-4-2-1.3333-5-2.3333-9-3-3.3333-0.66667-4.6667-1.6667-4-3z" fill="#b6891e" stroke="#b6891e"/>
 </g>
</svg>
